<svg width="1120" height="800" xmlns="http://www.w3.org/2000/svg">
 <title>all the data</title>

 <g>
  <title>background</title>
  <rect fill="none" id="canvas_background" height="802" width="1122" y="-1" x="-1"/>
 </g>
 <g>
  <title>Layer 1</title>
  <ellipse id="svg_1" fill="#3f3d56" ry="18.74165" rx="144.42094" cy="811.05902" cx="975.57906"/>
  <rect id="svg_2" fill="#f2f2f2" height="272" width="436" y="27.5"/>
  <rect id="svg_3" stroke-width="2" stroke-miterlimit="10" stroke="#3f3d56" fill="none" height="272" width="436" y="1" x="27.5"/>
  <path id="svg_4" fill="#3f3d56" d="m312.468,202.96801a94,94 0 0 0 -66.468,-160.46801l0,94l66.468,66.46801z"/>
  <path id="svg_5" fill="#ff0000" d="m246,42.5a94.01123,94.01123 0 0 0 -44.968,176.56414l44.968,-82.56414l0,-94z"/>
  <path id="svg_6" fill="#575a89" d="m312.468,202.96801l-66.468,-66.46801l-44.968,82.56414a94.04908,94.04908 0 0 0 111.436,-16.09613z"/>
  <rect id="svg_7" fill="#ff0000" height="18" width="18" y="216.5" x="44"/>
  <rect id="svg_8" fill="#3f3d56" height="18" width="18" y="216.5" x="70"/>
  <rect id="svg_9" fill="#575a89" height="18" width="18" y="216.5" x="96"/>
  <rect id="svg_10" fill="#3f3d56" height="3" width="74" y="220.5" x="355"/>
  <rect id="svg_11" fill="#3f3d56" height="3" width="74" y="229.5" x="355"/>
  <rect id="svg_12" fill="#3f3d56" height="3" width="74" y="238.5" x="355"/>
  <rect id="svg_13" fill="#f2f2f2" height="272" width="248" y="406.5" x="137"/>
  <rect id="svg_14" stroke-width="2" stroke-miterlimit="10" stroke="#3f3d56" fill="none" height="272" width="248" y="380.5" x="162"/>
  <rect id="svg_15" fill="#ff0000" height="13.37143" width="13.37143" y="621.81429" x="175"/>
  <rect id="svg_16" fill="#3f3d56" height="13.37143" width="13.37143" y="621.81429" x="194.31429"/>
  <rect id="svg_17" fill="#575a89" height="13.37143" width="13.37143" y="621.81429" x="213.62857"/>
  <rect id="svg_18" fill="#3f3d56" height="2.10811" width="52" y="627.62162" x="325"/>
  <rect id="svg_19" fill="#3f3d56" height="2.10811" width="52" y="633.94595" x="325"/>
  <rect id="svg_20" fill="#3f3d56" height="2.10811" width="52" y="640.27027" x="325"/>
  <path id="svg_21" fill="#3f3d56" d="m286,428.5l0,22a66,66 0 0 1 46.66907,112.66906l15.55633,15.55634a88,88 0 0 0 -62.2254,-150.2254z"/>
  <path id="svg_22" fill="#575a89" d="m348.2254,578.7254l-15.55633,-15.55634a65.98344,65.98344 0 0 1 -86.6,5.87165l-13.31577,17.52075a87.99775,87.99775 0 0 0 115.4721,-7.83606z"/>
  <path id="svg_23" fill="#ff0000" d="m220,516.5a66,66 0 0 1 66,-66l0,-22a87.99914,87.99914 0 0 0 -53.2467,158.06146l13.31579,-17.52075a65.885,65.885 0 0 1 -26.06909,-52.54071z"/>
  <path id="svg_24" fill="#ffb9b9" d="m931.62443,140.99333s-4.08028,30.31061 6.41186,33.808s7.57765,30.31062 7.57765,30.31062l-31.47641,23.89875l-27.979,2.33159l-6.99476,-36.13958l4.08023,-9.32638s15.73821,-18.65268 4.66318,-37.88826s43.71725,-6.99474 43.71725,-6.99474z"/>
  <path id="svg_25" opacity="0.1" d="m931.62443,140.99333s-4.08028,30.31061 6.41186,33.808s7.57765,30.31062 7.57765,30.31062l-31.47641,23.89875l-27.979,2.33159l-6.99476,-36.13958l4.08023,-9.32638s15.73821,-18.65268 4.66318,-37.88826s43.71725,-6.99474 43.71725,-6.99474z"/>
  <path id="svg_26" fill="#575a89" d="m902.47961,377.06633l-36.72248,86.2687s-28.56192,-16.3211 -45.46592,-14.57241s-37.88827,-18.65268 -37.88827,-18.65268l20.98427,-101.424l39.05406,-107.83584l54.20937,34.39089l5.82897,121.82534z"/>
  <path id="svg_27" opacity="0.1" d="m902.47961,377.06633l-36.72248,86.2687s-28.56192,-16.3211 -45.46592,-14.57241s-37.88827,-18.65268 -37.88827,-18.65268l20.98427,-101.424l39.05406,-107.83584l54.20937,34.39089l5.82897,121.82534z"/>
  <polygon id="svg_28" fill="#575a89" points="960.186 743.708 960.186 771.687 933.956 771.687 938.036 739.045 960.186 743.708"/>
  <polygon id="svg_29" fill="#575a89" points="1028.385 695.328 1047.621 706.986 1033.631 739.045 1019.059 737.296 1005.069 717.478 1028.385 695.328"/>
  <path id="svg_30" fill="#2f2e41" d="m965.43242,368.90581l34.39089,81.02261s-12.24083,89.766 -11.65793,97.3437s1.16579,10.49214 -1.74869,16.904s-4.08027,10.49213 -2.33158,18.06979s2.33158,10.49213 1.16579,13.40661s-9.32634,122.99115 -13.40662,131.1517s2.33159,21.56717 -1.74869,22.733s-34.39089,-1.74869 -36.13958,-8.74344s5.829,-23.89876 1.74869,-29.14483s0.5829,-194.10451 -5.24607,-206.92823s-69.94757,-24.48165 -69.94757,-24.48165s-5.829,-37.30537 -2.33158,-43.13433s8.16052,-42.55148 8.16052,-42.55148l99.09242,-25.64745z"/>
  <path id="svg_31" fill="#2f2e41" d="m931.62443,767.02407s16.3211,-19.23558 30.31061,0c0,0 1.16579,22.733 11.075,27.39614s5.24607,23.31585 -8.74344,23.89875s-32.05931,2.91448 -32.6422,-4.66317s2.33158,-12.24083 -2.91448,-14.57241s0,-15.7382 0,-15.7382l2.91451,-16.32111z"/>
  <path id="svg_32" fill="#2f2e41" d="m933.37312,488.39958s-0.5829,41.96854 -4.66317,47.79751s-6.41187,9.32634 -4.08028,15.7382s5.829,18.06979 4.08028,20.40138s1.74868,14.57241 1.74868,14.57241s44.883,21.56717 65.8673,66.45019c0,0 21.56717,35.55668 27.979,36.13958s13.98951,-4.08028 10.49214,9.32634s-16.904,30.89351 -26.81324,29.14482s-17.48683,-18.65268 -17.48683,-18.65268s-77.52523,-78.691 -85.68578,-81.02261s-31.47641,-20.98427 -35.55668,-32.6422s-12.82372,-109.00163 -8.74345,-115.41349s19.23559,-15.15531 19.23559,-15.15531l53.62644,23.31586z"/>
  <path id="svg_33" fill="#2f2e41" d="m1034.2142,692.99623s36.13958,1.16579 36.72247,9.90924s-15.1553,60.62123 -12.82372,72.86205s-18.06979,40.21986 -31.4764,34.39089s-2.91449,-36.13958 -2.91449,-36.13958s-13.40661,-41.38564 -11.075,-41.96854s25.64744,-7.57765 24.48165,-14.57241s-2.91451,-24.48165 -2.91451,-24.48165z"/>
  <circle id="svg_34" fill="#ffb9b9" r="36.13958" cy="136.03869" cx="904.51974"/>
  <path id="svg_35" fill="#ff0000" d="m940.95077,191.70533s-19.81848,20.98427 -34.39089,17.48689s-22.15006,-28.56192 -22.15006,-28.56192l-26.23034,-4.66318s-18.65269,82.7713 -18.65269,90.93185s18.65269,96.17791 18.65269,111.91611s-15.15531,25.06455 8.16055,24.48165s12.24082,-8.16055 46.04882,-8.74344s39.05406,6.99475 46.04881,-5.24607a97.52308,97.52308 0 0 1 17.4869,-21.56717l-12.24083,-43.13434l-1.74873,-121.82538s-14.94433,-29.14482 -21.75313,-26.81324c0.00004,0 3.68338,12.82373 0.7689,15.73824z"/>
  <path id="svg_36" fill="#575a89" d="m933.7711,170.81168s31.07842,3.40672 39.82187,9.81859s33.2251,11.075 32.6422,15.7382s-28.56192,71.11336 -28.56192,71.11336s-12.82373,52.46068 -1.74869,64.70151s52.46067,145.72411 45.46592,156.79914s-29.14482,-33.808 -29.14482,-33.808s-29.72772,-96.17791 -46.04882,-112.499s-17.48684,-104.33847 -17.48684,-108.41874s5.0611,-63.44506 5.0611,-63.44506z"/>
  <path id="svg_37" fill="#575a89" d="m888.31275,177.57246s-38.29382,-14.42913 -51.70044,-8.60013s-21.56717,6.99475 -21.56717,6.99475l-4.66314,57.12386s-1.74869,82.1884 -16.904,102.00688s-25.06454,102.58977 -22.733,110.75032s-4.08027,22.15007 5.829,18.65269s37.30537,-83.93709 37.30537,-83.93709s0,-46.04882 16.3211,-58.87254s43.13433,-65.86729 44.30013,-78.691s12.24082,-48.3804 12.24082,-48.3804l1.57133,-17.04734z"/>
  <path id="svg_38" fill="#ffb9b9" d="m1019.64179,361.32816s-17.48689,32.64217 -19.81848,38.47117s-18.65269,45.46593 -41.96854,36.72248s22.733,-51.29489 22.733,-51.29489l10.49213,-35.55668s27.3961,-5.82897 28.56189,11.65792z"/>
  <path id="svg_39" fill="#575a89" d="m820.87411,175.96709l-5.829,0s-5.829,-4.66317 -12.82372,-1.74869s-23.31586,-1.16579 -23.31586,0.5829s-18.06979,-5.24607 -25.64744,-1.74869s-34.97379,4.66317 -34.97379,4.66317s-11.075,27.979 -3.49737,33.2251s18.65268,1.16579 23.89875,5.24607s15.15531,-0.5829 18.65268,4.66317s16.3211,14.57241 19.23559,8.74345s-2.91449,-11.075 9.32634,-4.66318s31.47641,6.41187 31.47641,6.41187l3.49741,-55.37517z"/>
  <path id="svg_40" fill="#2f2e41" d="m907.77766,109.33714c-4.89044,-1.13 -9.96711,0.1222 -14.92033,0.93394s-10.41184,1.07935 -14.60177,-1.6843c-3.0943,-2.041 -4.99673,-5.41753 -6.78315,-8.66544a9.97336,9.97336 0 0 1 -1.45909,-3.82348c-0.21032,-2.40206 1.31768,-4.59363 2.94029,-6.37723c7.537,-8.28481 18.55107,-12.81929 29.65825,-14.25967c9.13047,-1.184 18.64965,-0.3911 27.08125,3.307s15.67956,10.47034 18.99451,19.05978a54.12707,54.12707 0 0 1 2.83686,13.61089a40.65711,40.65711 0 0 1 0.19122,10.30794a44.18819,44.18819 0 0 1 -1.99761,7.46792l-5.49117,16.58084a10.92419,10.92419 0 0 1 -2.15919,4.27407a3.73555,3.73555 0 0 1 -4.37439,0.95837a13.61344,13.61344 0 0 0 0.19684,-5.50046a4.64127,4.64127 0 0 0 -3.66213,-3.69318c-2.024,-0.21479 -3.753,1.35417 -5.673,2.02989a6.979,6.979 0 0 1 -8.811,-5.24475c-0.30309,-1.89562 0.20582,-3.92494 -0.51269,-5.7051c-0.84183,-2.08568 -3.07419,-3.17852 -4.7513,-4.67723a10.93629,10.93629 0 0 1 -3.00075,-11.3656c0.449,-1.37991 1.717,-2.00722 1.46331,-3.59244c-0.33281,-2.07969 -3.39898,-3.5337 -5.16496,-3.94176z"/>
  <rect id="svg_41" fill="#f2f2f2" height="272" width="248" y="236.5" x="507"/>
  <rect id="svg_42" stroke-width="2" stroke-miterlimit="10" stroke="#3f3d56" fill="none" height="272" width="248" y="210.5" x="532"/>
  <polyline id="svg_43" stroke-width="2" stroke-miterlimit="10" stroke="#3f3d56" fill="none" points="556 227.5 556 435.5 757 435.5"/>
  <rect id="svg_44" fill="#575a89" height="72" width="45" y="362.5" x="567"/>
  <rect id="svg_45" fill="#3f3d56" height="121" width="45" y="313.5" x="632"/>
  <rect id="svg_46" fill="#ff0000" height="178" width="45" y="256.5" x="697"/>
  <rect id="svg_47" fill="#ff0000" height="13.37143" width="13.37143" y="451.81429" x="553"/>
  <rect id="svg_48" fill="#3f3d56" height="13.37143" width="13.37143" y="451.81429" x="572.31429"/>
  <rect id="svg_49" fill="#575a89" height="13.37143" width="13.37143" y="451.81429" x="591.62857"/>
  <rect id="svg_50" fill="#3f3d56" height="2.10811" width="52" y="457.62162" x="703"/>
  <rect id="svg_51" fill="#3f3d56" height="2.10811" width="52" y="463.94595" x="703"/>
  <rect id="svg_52" fill="#3f3d56" height="2.10811" width="52" y="470.27027" x="703"/>
  <path id="svg_53" fill="#ffb9b9" d="m724.3076,177.68225c10.62848,0.46211 18.52575,10.10069 17.376,20.67691c-1.04159,9.58175 -4.884,21.50465 -16.98745,26.08434c-21.56716,8.16055 -20.40137,-37.88827 -16.3211,-39.637c2.72023,-1.16575 6.9948,-7.51284 15.93255,-7.12425z"/>
  <path id="svg_54" fill="#575a89" d="m999.82331,193.25433l6.41186,3.11414s13.98951,28.56192 14.57241,32.6422s9.90924,19.23558 6.41186,23.31586s-8.74344,14.57241 -5.24607,18.65268s11.65793,20.40138 11.65793,26.23034s-8.74344,21.56717 -2.91448,23.31586s4.08028,24.48165 2.91448,26.23034s-16.3211,30.31061 -16.3211,30.31061s-2.91448,-32.6422 -31.4764,-19.23558c0,0 -2.33159,-16.3211 0,-17.48689s8.16055,-8.16055 3.49737,-9.32635s-11.075,-15.1553 -9.90924,-16.904s4.08028,-4.08028 1.1658,-5.829s-5.24607,-11.65792 -4.66317,-13.40661s-6.41186,-9.90924 -6.41186,-9.90924l30.31061,-91.71436z"/>
 </g>
</svg>